<?xml version="1.0" encoding="UTF-8"?><svg id="Livello_2" xmlns="http://www.w3.org/2000/svg" xmlns:xlink="http://www.w3.org/1999/xlink" viewBox="0 0 68.87 54.73"><defs><style>.cls-1{fill:#ef809f;}.cls-1,.cls-2,.cls-3,.cls-4,.cls-5{stroke:#1d1d1b;stroke-miterlimit:10;}.cls-2{fill:#85bee8;}.cls-3{fill:#f7ac5f;}.cls-4{fill:url(#Sfumatura_senza_nome_10);}.cls-5{fill:url(#Sfumatura_senza_nome_12);}</style><linearGradient id="Sfumatura_senza_nome_10" x1="34.68" y1="8.06" x2="34.68" y2="31.37" gradientUnits="userSpaceOnUse"><stop offset=".4" stop-color="#f7ac5f"/><stop offset=".67" stop-color="#ef809f"/></linearGradient><linearGradient id="Sfumatura_senza_nome_12" x1="49.75" y1="59.17" x2="49.75" y2="21.97" gradientUnits="userSpaceOnUse"><stop offset=".4" stop-color="#85bee8"/><stop offset=".67" stop-color="#ef809f"/></linearGradient></defs><g id="Livello_3"><g><path class="cls-3" d="M12.63,8.96c1.36,.44,2.72,.9,4.08,1.34,1.84,.59,3.68,1.17,5.51,1.77,.82,.27,1.64,.55,2.46,.82,2.29,.73,4.59,1.45,6.88,2.19,1.55,.5,3.09,1.02,4.64,1.53,2.32,.76,4.63,1.5,6.95,2.26,3.2,1.05,6.4,2.11,9.61,3.15,1.86,.61,3.73,1.19,5.59,1.78,.67,.21,1.34,.42,2.05,.64,0-.09,.02-.12,0-.14-.75-1.52-1.49-3.03-2.24-4.55-.15-.3-.38-.47-.73-.58-2.7-.86-5.38-1.76-8.07-2.65-1.41-.46-2.82-.93-4.23-1.4-2.28-.75-4.56-1.5-6.83-2.25-1.23-.4-2.45-.82-3.67-1.23-1.87-.61-3.74-1.21-5.61-1.83-1.44-.47-2.87-.97-4.31-1.45-2.22-.74-4.45-1.46-6.68-2.19-2.77-.92-5.54-1.84-8.31-2.76C7.01,2.52,4.3,1.63,1.58,.73c-.24-.08-.48-.15-.72-.21-.32-.08-.4,.1-.34,.35,.05,.19,.13,.38,.23,.55,.91,1.57,2.06,2.94,3.37,4.17,.55,.52,1.15,.99,1.89,1.22,2.21,.71,4.41,1.42,6.61,2.13Z"/><path class="cls-4" d="M29.85,21.52c1.87,.62,3.74,1.24,5.61,1.85,2.2,.72,4.41,1.44,6.61,2.16,1.41,.47,2.82,.95,4.23,1.41,1.74,.57,3.48,1.12,5.21,1.69,1.46,.48,2.92,.98,4.38,1.46,2.26,.75,4.52,1.49,6.78,2.22,.46,.15,.92,.29,1.41,.44,0-.11,.01-.16,0-.2-.61-1.52-1.21-3.04-1.84-4.56-.07-.17-.27-.34-.45-.4-2.6-.85-5.21-1.68-7.82-2.52-2.94-.95-5.88-1.9-8.83-2.85-2.54-.82-5.09-1.66-7.63-2.48-3.82-1.23-7.64-2.46-11.45-3.69-2.82-.91-5.63-1.84-8.45-2.75-2.66-.86-5.32-1.72-7.98-2.58-1.29-.42-2.59-.84-3.89-1.25-.13-.04-.29-.01-.44-.02,0,.16-.05,.34,.01,.46,.2,.42,.42,.83,.68,1.22,.62,.95,1.42,1.73,2.22,2.52,.86,.84,1.82,1.35,2.94,1.69,1.84,.56,3.67,1.18,5.5,1.79,1.95,.65,3.9,1.31,5.85,1.95,2.44,.81,4.89,1.61,7.34,2.42Z"/><path class="cls-1" d="M43.61,33.23c1.56,.5,3.1,1.03,4.66,1.53,2.33,.75,4.67,1.48,7.01,2.22,1.26,.4,2.51,.81,3.76,1.22,2.01,.65,4.02,1.29,6.04,1.94,.53,.17,1.07,.33,1.6,.5,.02-.05,.04-.08,.03-.1-.46-1.55-.92-3.11-1.41-4.66-.05-.17-.26-.34-.43-.4-1.12-.38-2.26-.72-3.38-1.09-2.31-.75-4.63-1.5-6.94-2.25-2.06-.67-4.12-1.34-6.18-2.01-2.05-.66-4.1-1.32-6.15-1.98-1.72-.55-3.45-1.1-5.17-1.65-2.14-.69-4.28-1.38-6.42-2.08-2.17-.7-4.33-1.4-6.5-2.11-1.94-.63-3.87-1.26-5.81-1.89-.08-.03-.22-.03-.26,.02-.05,.06-.05,.19-.02,.27,.1,.24,.22,.48,.36,.71,1.08,1.79,2.55,3.26,4,4.74,.24,.25,.6,.43,.94,.54,1.93,.64,3.88,1.24,5.82,1.87,3.02,.97,6.03,1.96,9.05,2.93,1.8,.58,3.6,1.14,5.39,1.72Z"/><path class="cls-5" d="M68.01,43.81c-.09-.31-.26-.49-.58-.58-.87-.24-1.74-.51-2.61-.79-1.77-.56-3.53-1.13-5.29-1.68-1.75-.55-3.51-1.08-5.27-1.63-1.52-.48-3.02-.98-4.54-1.46-2.09-.66-4.19-1.31-6.29-1.96-2.08-.65-4.16-1.29-6.24-1.94-1.9-.6-3.79-1.2-5.68-1.8-.11-.03-.23,0-.35,0,0,.12-.03,.26,.02,.35,.27,.48,.51,.99,.86,1.42,1.05,1.26,2.13,2.5,3.23,3.72,.27,.3,.62,.59,1,.72,1.67,.57,3.35,1.08,5.03,1.61,2.34,.74,4.68,1.48,7.02,2.22,2.31,.72,4.63,1.43,6.95,2.15,1.14,.35,2.27,.73,3.41,1.08,1.1,.35,2.2,.69,3.3,1.03,1.63,.51,3.25,1.03,4.88,1.55,.39,.12,.49,.07,.64-.35,.18-.52,.36-1.05,.53-1.57,.11-.33,.21-.67,.32-1.01-.11-.36-.24-.72-.34-1.08Z"/><path class="cls-2" d="M65.84,54.17c.28,.1,.41,.11,.49-.2,.23-.89,.48-1.77,.71-2.66,.08-.3,.14-.61,.22-1-.06-.04-.15-.13-.26-.17-1.42-.48-2.84-.95-4.26-1.41-1.52-.5-3.04-.98-4.55-1.47-1.47-.48-2.93-.96-4.4-1.44-1.73-.57-3.46-1.14-5.19-1.71-.68-.22-1.36-.44-2.05-.65-.08-.03-.22-.02-.27,.03-.05,.05-.03,.18-.01,.27,.03,.11,.08,.21,.15,.31,.49,.7,.95,1.43,1.49,2.09,.89,1.08,1.84,2.12,2.78,3.15,.16,.17,.41,.29,.64,.37,.94,.31,1.89,.6,2.84,.89,.9,.28,1.8,.57,2.7,.85,1.31,.4,2.62,.79,3.93,1.19,.97,.3,1.94,.62,2.91,.93,.71,.22,1.43,.39,2.12,.64"/></g></g></svg>