<?xml version="1.0" encoding="utf-8"?>
<!-- Generator: Adobe Illustrator 26.0.1, SVG Export Plug-In . SVG Version: 6.00 Build 0)  -->
<svg version="1.1" xmlns="http://www.w3.org/2000/svg" xmlns:xlink="http://www.w3.org/1999/xlink" x="0px" y="0px"
	 viewBox="0 0 153 124" style="enable-background:new 0 0 153 124;" xml:space="preserve">
<style type="text/css">
	.st0{display:none;}
	.st1{display:inline;fill:#FFFFFF;}
	.st2{display:inline;fill:#009839;}
	.st3{display:inline;opacity:0.8;fill:#009839;}
	.st4{display:inline;opacity:0.6;fill:#009839;}
	.st5{display:inline;opacity:0.4;fill:#009839;}
	.st6{display:inline;opacity:0.2;fill:#009839;}
	.st7{display:inline;opacity:0.7;fill:#009839;}
	.st8{display:inline;opacity:0.5;fill:#009839;}
	.st9{display:inline;opacity:0.3;fill:#009839;}
	.st10{display:inline;}
	.st11{display:inline;fill:#099439;}
	.st12{display:inline;opacity:0.6;fill:#099439;}
	.st13{display:inline;opacity:0.3;fill:#099439;}
	.st14{display:inline;opacity:0.2;fill:#474747;}
	.st15{fill:#474747;}
	.st16{fill:#009839;}
	.st17{fill:none;stroke:#B3D1A7;stroke-miterlimit:10;}
	.st18{fill:#686868;}
	.st19{fill:#BABABA;}
	.st20{fill:#BABABA;stroke:#000000;stroke-width:2;stroke-miterlimit:10;}
	.st21{fill:none;stroke:#000000;stroke-width:2;stroke-miterlimit:10;}
	.st22{fill:none;stroke:#BABABA;stroke-width:2.5;stroke-linecap:round;stroke-miterlimit:10;}
	.st23{fill:none;stroke:#000000;stroke-width:2;stroke-linecap:round;stroke-miterlimit:10;}
	.st24{fill:#FFFFFF;stroke:#000000;stroke-width:2;stroke-linecap:round;stroke-miterlimit:10;}
	.st25{fill:#FFFFFF;}
	.st26{fill:#686868;stroke:#000000;stroke-width:2;stroke-miterlimit:10;}
	.st27{fill:none;stroke:#000000;stroke-miterlimit:10;}
	.st28{fill:none;stroke:#000000;stroke-width:2;stroke-linecap:round;stroke-linejoin:round;stroke-miterlimit:10;}
	.st29{fill:none;stroke:#000000;stroke-width:2;stroke-linejoin:round;stroke-miterlimit:10;}
</style>
<g id="Livello_1" class="st0">
</g>
<g id="Livello_2">
	<g id="Gruppo_di_maschere_7_00000094581464688336056630000001971325698500335787_" transform="translate(-954 -458)">
		<g>
			<path class="st19" d="M1049.1,519.4c1.3-0.6,2.4-1.2,3.5-1.7c1.1,1.5,2.9,1.7,4.5,0.9c1.2-0.6,1.6-1.7,1.2-3.6
				c-1.1,0.6-2.2,0.9-3.4,0.9c-3.3,0-6-2.1-6.8-5.6c-0.5-2.2-0.4-4.3,0.6-6.4c1.8-3.8,6.3-5.1,9.9-2.9c0.1,0,0.1,0,0.2,0.1
				c0-0.2,0.1-0.4,0.1-0.7c1.1,0,2.1,0,3.3,0c0,0.2,0,0.4,0,0.6c0,5,0,10,0,15.1c0,0.6,0,1.3-0.1,1.9c-0.3,1.6-1.1,2.9-2.6,3.6
				c-2.9,1.4-5.9,1.5-8.6-0.5C1050.3,520.7,1049.8,520.1,1049.1,519.4z M1059.1,508.1c-0.1-0.9-0.2-1.7-0.4-2.4
				c-0.4-1.2-1.2-2.1-2.5-2.2c-1.5-0.1-2.7,0.2-3.4,1.6c-1,2-1,4,0,6c0.7,1.3,1.9,1.6,3.3,1.5c1.3-0.1,2.2-0.8,2.6-2
				C1058.8,509.7,1058.9,508.9,1059.1,508.1z"/>
			<path class="st19" d="M1034.9,515.5c-1.3,0-2.5,0-3.8,0c0-5,0-9.9,0-15c1.1,0,2.1,0,3.3,0c0,0.5,0,0.9,0,1.4
				c0.2-0.1,0.3-0.2,0.4-0.2c2.3-2,4.8-2.1,7.5-1.1c0.8,0.3,1.4,0.9,1.8,1.7c0.7,1.4,1.1,2.8,1.1,4.4c0,2.9,0,5.8,0,8.8
				c-1.3,0-2.5,0-3.8,0c0-0.2,0-0.4,0-0.7c0-2.2,0-4.3,0-6.5c0-0.8-0.1-1.7-0.3-2.5c-0.5-1.9-2.1-2.7-4-2c-1.1,0.4-1.8,1.3-1.9,2.4
				c-0.1,0.6-0.1,1.3-0.1,1.9c0,2.2,0,4.4,0,6.6C1034.9,515,1034.9,515.2,1034.9,515.5z"/>
			<path class="st18" d="M1036.1,531c1.1,0,2.1,0,3.2,0c0,0.5,0,0.9,0.1,1.4c0.2-0.1,0.3-0.2,0.4-0.3c2-2,5.6-1.9,7.5-1
				c0.7,0.3,1.3,0.9,1.6,1.6c0.7,1.4,1.1,2.8,1.1,4.4c0,2.8,0,5.7,0,8.5c0,0.1,0,0.2,0,0.3c-1.2,0-2.4,0-3.7,0c0-0.2,0-0.5,0-0.7
				c0-2.2,0-4.4,0-6.6c0-0.8-0.1-1.6-0.3-2.3c-0.6-2.1-2.8-2.9-4.6-1.7c-1.3,0.8-1.5,2.1-1.5,3.4c0,2.4,0,4.8,0,7.3
				c0,0.2,0,0.5,0,0.7c-1.3,0-2.5,0-3.7,0C1036.1,540.9,1036.1,536,1036.1,531z"/>
			<path class="st18" d="M1052.7,533.8c0-1,0-1.8,0-2.8c0.6,0,1.2,0,1.7,0c0.4,0,0.6-0.1,0.6-0.6c0-0.3,0-0.7,0.1-1
				c0.1-2.1,1.2-3.5,3.3-3.8c1.2-0.2,2.5,0,3.8,0c0,0.9,0,1.9,0,2.9c-0.5,0-1,0-1.5,0c-1.6,0-2.2,0.8-1.9,2.5c1.1,0,2.2,0,3.3,0
				c0,1,0,1.8,0,2.8c-1.1,0-2.2,0-3.4,0c0,4.1,0,8.1,0,12.1c-1.3,0-2.5,0-3.8,0c0-0.2,0-0.5,0-0.7c0-3.5,0-7.1,0-10.6
				c0-0.6-0.2-0.8-0.7-0.7C1053.8,533.8,1053.3,533.8,1052.7,533.8z"/>
			<path class="st19" d="M1023.1,500.5c1.2,0,2.5,0,3.7,0c0,5,0,10,0,15c-1.3,0-2.5,0-3.7,0C1023.1,510.5,1023.1,505.5,1023.1,500.5
				z"/>
			<path class="st18" d="M1028.1,531c1.2,0,2.4,0,3.6,0c0,5,0,9.9,0,14.9c-1.2,0-2.4,0-3.6,0C1028.1,541,1028.1,536,1028.1,531z"/>
			<path class="st19" d="M1026.8,498.3c-1.3,0-2.4,0-3.7,0c0-1.1,0-2.2,0-3.3c1.2,0,2.4,0,3.7,0
				C1026.8,496.1,1026.8,497.2,1026.8,498.3z"/>
			<path class="st18" d="M1028.1,525.6c1.2,0,2.4,0,3.6,0c0,1.1,0,2.1,0,3.2c-1.2,0-2.4,0-3.6,0
				C1028.1,527.7,1028.1,526.7,1028.1,525.6z"/>
		</g>
	</g>
	<path d="M122,104H39V21h83V104z M41,102h79V23H41V102z"/>
</g>
</svg>
