<?xml version="1.0" encoding="utf-8"?>
<!-- Generator: Adobe Illustrator 26.0.1, SVG Export Plug-In . SVG Version: 6.00 Build 0)  -->
<svg version="1.1" xmlns="http://www.w3.org/2000/svg" xmlns:xlink="http://www.w3.org/1999/xlink" x="0px" y="0px"
	 viewBox="0 0 153 124" style="enable-background:new 0 0 153 124;" xml:space="preserve">
<style type="text/css">
	.st0{display:none;}
	.st1{display:inline;fill:#FFFFFF;}
	.st2{display:inline;fill:#009839;}
	.st3{display:inline;opacity:0.8;fill:#009839;}
	.st4{display:inline;opacity:0.6;fill:#009839;}
	.st5{display:inline;opacity:0.4;fill:#009839;}
	.st6{display:inline;opacity:0.2;fill:#009839;}
	.st7{display:inline;opacity:0.7;fill:#009839;}
	.st8{display:inline;opacity:0.5;fill:#009839;}
	.st9{display:inline;opacity:0.3;fill:#009839;}
	.st10{display:inline;}
	.st11{display:inline;fill:#099439;}
	.st12{display:inline;opacity:0.6;fill:#099439;}
	.st13{display:inline;opacity:0.3;fill:#099439;}
	.st14{display:inline;opacity:0.2;fill:#474747;}
	.st15{fill:#474747;}
	.st16{fill:#009839;}
	.st17{fill:none;stroke:#B3D1A7;stroke-miterlimit:10;}
	.st18{fill:#686868;}
	.st19{fill:#BABABA;}
	.st20{fill:#BABABA;stroke:#000000;stroke-width:2;stroke-miterlimit:10;}
	.st21{fill:none;stroke:#000000;stroke-width:2;stroke-miterlimit:10;}
	.st22{fill:none;stroke:#BABABA;stroke-width:2.5;stroke-linecap:round;stroke-miterlimit:10;}
	.st23{fill:none;stroke:#000000;stroke-width:2;stroke-linecap:round;stroke-miterlimit:10;}
	.st24{fill:#FFFFFF;stroke:#000000;stroke-width:2;stroke-linecap:round;stroke-miterlimit:10;}
	.st25{fill:#FFFFFF;}
	.st26{fill:#686868;stroke:#000000;stroke-width:2;stroke-miterlimit:10;}
	.st27{fill:none;stroke:#000000;stroke-miterlimit:10;}
	.st28{fill:none;stroke:#000000;stroke-width:2;stroke-linecap:round;stroke-linejoin:round;stroke-miterlimit:10;}
	.st29{fill:none;stroke:#000000;stroke-width:2;stroke-linejoin:round;stroke-miterlimit:10;}
</style>
<g id="Livello_1" class="st0">
</g>
<g id="Livello_2">
	<g>
		<g>
			<polygon class="st19" points="106.2,81.4 106.2,44.7 74.5,26.4 42.8,44.7 42.8,81.4 74.5,99.7 			"/>
			<path d="M74.5,100.8L41.8,81.9V44.2l32.7-18.9l32.7,18.9v37.8L74.5,100.8z M43.8,80.8l30.7,17.7l30.7-17.7V45.3L74.5,27.6
				L43.8,45.3V80.8z"/>
		</g>
		<path d="M74.5,109.4L34,86V39.2l40.5-23.4L115,39.2V86l-4.9,2.8c-0.5,0.3-1.1,0.1-1.4-0.4c-0.3-0.5-0.1-1.1,0.4-1.4l3.9-2.3V40.4
			L74.5,18.2L36,40.4v44.5l38.5,22.2l21.6-12.5c0.5-0.3,1.1-0.1,1.4,0.4c0.3,0.5,0.1,1.1-0.4,1.4L74.5,109.4z"/>
		<g>
			<path class="st25" d="M104,82l-8.2-8.1c3.6-28.1-20.9-23.8-23-23.4c-0.1,0-0.1,0.1,0,0.1l9.8,8.6l2.1,6.3l0.1,0.3l-7.2,7.2
				L71,71.6l-9.4-9.1c0,0-0.1,0-0.1,0c-0.3,2-3.3,24.9,23.3,21.6L90,90"/>
			<path d="M90,91c-0.3,0-0.5-0.1-0.7-0.3l-4.9-5.4c-8.6,1-15.1-0.7-19.2-5c-6.2-6.4-4.8-16.7-4.6-17.8l0.1-0.6l0.6-0.2
				c0.4-0.1,0.8,0,1.1,0.2l9.2,8.9l5.7,1.3l6.4-6.4l-1.9-5.8L71.6,51l0.1-0.7c0.1-0.4,0.4-0.7,0.8-0.8c1.2-0.2,12.4-2.2,19.2,4.2
				c4.4,4.2,6.1,10.8,5.1,19.8l7.9,7.7c0.4,0.4,0.4,1,0,1.4c-0.4,0.4-1,0.4-1.4,0l-8.6-8.4l0.1-0.5c1.1-8.6-0.4-14.8-4.4-18.6
				c-4.8-4.5-12-4.4-15.5-4l8.5,7.5l2.2,6.8l0.3,0.6l-8.1,8.1l-7.3-1.7l-8.3-7.9c-0.2,3.2,0,9.9,4.3,14.3c3.7,3.9,9.8,5.3,18.1,4.3
				l0.5-0.1l5.6,6.2c0.4,0.4,0.3,1-0.1,1.4C90.5,90.9,90.2,91,90,91z M73.4,49.9L73.4,49.9C73.4,49.9,73.4,49.9,73.4,49.9z"/>
		</g>
	</g>
</g>
</svg>
