<?xml version="1.0" encoding="utf-8"?>
<!-- Generator: Adobe Illustrator 26.0.1, SVG Export Plug-In . SVG Version: 6.00 Build 0)  -->
<svg version="1.1" xmlns="http://www.w3.org/2000/svg" xmlns:xlink="http://www.w3.org/1999/xlink" x="0px" y="0px"
	 viewBox="0 0 153 124" style="enable-background:new 0 0 153 124;" xml:space="preserve">
<style type="text/css">
	.st0{display:none;}
	.st1{display:inline;fill:#FFFFFF;}
	.st2{display:inline;fill:#009839;}
	.st3{display:inline;opacity:0.8;fill:#009839;}
	.st4{display:inline;opacity:0.6;fill:#009839;}
	.st5{display:inline;opacity:0.4;fill:#009839;}
	.st6{display:inline;opacity:0.2;fill:#009839;}
	.st7{display:inline;opacity:0.7;fill:#009839;}
	.st8{display:inline;opacity:0.5;fill:#009839;}
	.st9{display:inline;opacity:0.3;fill:#009839;}
	.st10{display:inline;}
	.st11{display:inline;fill:#099439;}
	.st12{display:inline;opacity:0.6;fill:#099439;}
	.st13{display:inline;opacity:0.3;fill:#099439;}
	.st14{display:inline;opacity:0.2;fill:#474747;}
	.st15{fill:#474747;}
	.st16{fill:#009839;}
	.st17{fill:none;stroke:#B3D1A7;stroke-miterlimit:10;}
	.st18{fill:#686868;}
	.st19{fill:#BABABA;}
	.st20{fill:#BABABA;stroke:#000000;stroke-width:2;stroke-miterlimit:10;}
	.st21{fill:none;stroke:#000000;stroke-width:2;stroke-miterlimit:10;}
	.st22{fill:none;stroke:#BABABA;stroke-width:2.5;stroke-linecap:round;stroke-miterlimit:10;}
	.st23{fill:none;stroke:#000000;stroke-width:2;stroke-linecap:round;stroke-miterlimit:10;}
	.st24{fill:#FFFFFF;stroke:#000000;stroke-width:2;stroke-linecap:round;stroke-miterlimit:10;}
	.st25{fill:#FFFFFF;}
	.st26{fill:#686868;stroke:#000000;stroke-width:2;stroke-miterlimit:10;}
	.st27{fill:none;stroke:#000000;stroke-miterlimit:10;}
	.st28{fill:none;stroke:#000000;stroke-width:2;stroke-linecap:round;stroke-linejoin:round;stroke-miterlimit:10;}
	.st29{fill:none;stroke:#000000;stroke-width:2;stroke-linejoin:round;stroke-miterlimit:10;}
</style>
<g id="Livello_1" class="st0">
</g>
<g id="Livello_2">
	<circle class="st18" cx="104.7" cy="52.3" r="11.2"/>
	<polygon class="st19" points="104.7,64.2 104.7,41.7 102.1,41.2 98,43.1 94.4,47.8 93.5,52.9 95.1,58.2 97.4,61 	"/>
	<polygon class="st18" points="76.4,63.4 76.4,35.8 72.2,36.4 67.7,38.8 64,43.2 62.5,48.1 62.6,51.9 64,56 65.4,58.2 67.3,60.2 
		69.4,61.6 73.8,63.3 	"/>
	<g>
		<path class="st19" d="M87.5,88.6h34.4l0.4,0c0.2-1.1,0.3-2.2,0.3-3.3c0-9.9-8-17.8-17.8-17.8s-17.8,8-17.8,17.8
			c0,1.1,0.1,2.1,0.3,3.1L87.5,88.6z"/>
		<path d="M123.1,89.6H87.3l-1.1-0.5l-0.1-0.5c-0.2-1.1-0.3-2.2-0.3-3.3c0-10.4,8.5-18.8,18.8-18.8s18.8,8.5,18.8,18.8
			c0,1.2-0.1,2.3-0.3,3.5L123.1,89.6z M88,87.6h33.4c0.1-0.8,0.2-1.5,0.2-2.3c0-9.3-7.6-16.8-16.8-16.8S87.9,76,87.9,85.3
			C87.9,86.1,87.9,86.8,88,87.6z"/>
	</g>
	<g>
		<path class="st19" d="M65.1,88.6H30.7l-0.4,0c-0.2-1.1-0.3-2.2-0.3-3.3c0-9.9,8-17.8,17.8-17.8s17.8,8,17.8,17.8
			c0,1.1-0.1,2.1-0.3,3.1L65.1,88.6z"/>
		<path d="M65.3,89.6H29.5l-0.2-0.8c-0.2-1.1-0.3-2.3-0.3-3.5c0-10.4,8.5-18.8,18.8-18.8s18.8,8.5,18.8,18.8c0,1.1-0.1,2.2-0.3,3.3
			l-0.1,0.5L65.3,89.6z M31.2,87.6h33.4c0.1-0.8,0.2-1.5,0.2-2.3c0-9.3-7.6-16.8-16.8-16.8S31,76,31,85.3
			C31,86.1,31.1,86.8,31.2,87.6z"/>
	</g>
	<g>
		<circle class="st18" cx="76.4" cy="49.6" r="13.9"/>
		<path d="M76.4,64.5c-8.2,0-14.9-6.7-14.9-14.9s6.7-14.9,14.9-14.9s14.9,6.7,14.9,14.9S84.6,64.5,76.4,64.5z M76.4,36.7
			c-7.1,0-12.9,5.8-12.9,12.9s5.8,12.9,12.9,12.9s12.9-5.8,12.9-12.9S83.5,36.7,76.4,36.7z"/>
	</g>
	<polygon points="76.3,35.8 76.3,63.4 80.5,62.9 85,60.5 88.7,56 90.2,51.2 90.1,47.4 88.7,43.2 87.3,41 85.4,39.1 83.3,37.6 
		78.9,36 	"/>
	<g>
		<path class="st18" d="M52.7,93.9c-0.1-0.9-0.1-1.7-0.1-2.6c0-13.1,10.6-23.8,23.8-23.8s23.8,10.6,23.8,23.8c0,0.9,0,1.8-0.1,2.6
			H52.7z"/>
		<path d="M100.8,94.9H51.8L51.7,94c-0.1-0.9-0.2-1.8-0.2-2.8c0-13.7,11.1-24.8,24.8-24.8s24.8,11.1,24.8,24.8
			c0,0.9-0.1,1.8-0.2,2.8L100.8,94.9z M53.6,92.9H99c0-0.5,0.1-1.1,0.1-1.6c0-12.6-10.2-22.8-22.8-22.8S53.5,78.7,53.5,91.2
			C53.5,91.8,53.5,92.3,53.6,92.9z"/>
	</g>
	<polygon points="76.3,93.9 76.3,67.5 88.5,70.8 95.6,77.3 98.5,82.8 100.1,89.3 100.1,93.9 	"/>
	<path d="M104.7,64.5c-6.7,0-12.2-5.5-12.2-12.2c0-6.7,5.5-12.2,12.2-12.2s12.2,5.5,12.2,12.2C116.9,59,111.5,64.5,104.7,64.5z
		 M104.7,42c-5.6,0-10.2,4.6-10.2,10.2c0,5.6,4.6,10.2,10.2,10.2s10.2-4.6,10.2-10.2C114.9,46.6,110.4,42,104.7,42z"/>
	<circle class="st18" cx="47.9" cy="52.3" r="11.2"/>
	<polygon class="st19" points="47.9,64.2 47.9,41.7 45.3,41.2 41.2,43.1 37.5,47.8 36.7,52.9 38.2,58.2 40.6,61 	"/>
	<path d="M47.9,64.5c-6.7,0-12.2-5.5-12.2-12.2c0-6.7,5.5-12.2,12.2-12.2c6.7,0,12.2,5.5,12.2,12.2C60.1,59,54.6,64.5,47.9,64.5z
		 M47.9,42c-5.6,0-10.2,4.6-10.2,10.2c0,5.6,4.6,10.2,10.2,10.2s10.2-4.6,10.2-10.2C58.1,46.6,53.5,42,47.9,42z"/>
</g>
</svg>
