<?xml version="1.0" encoding="utf-8"?>
<!-- Generator: Adobe Illustrator 26.0.1, SVG Export Plug-In . SVG Version: 6.00 Build 0)  -->
<svg version="1.1" xmlns="http://www.w3.org/2000/svg" xmlns:xlink="http://www.w3.org/1999/xlink" x="0px" y="0px"
	 viewBox="0 0 153 124" style="enable-background:new 0 0 153 124;" xml:space="preserve">
<style type="text/css">
	.st0{display:none;}
	.st1{display:inline;fill:#FFFFFF;}
	.st2{display:inline;fill:#009839;}
	.st3{display:inline;opacity:0.8;fill:#009839;}
	.st4{display:inline;opacity:0.6;fill:#009839;}
	.st5{display:inline;opacity:0.4;fill:#009839;}
	.st6{display:inline;opacity:0.2;fill:#009839;}
	.st7{display:inline;opacity:0.7;fill:#009839;}
	.st8{display:inline;opacity:0.5;fill:#009839;}
	.st9{display:inline;opacity:0.3;fill:#009839;}
	.st10{display:inline;}
	.st11{display:inline;fill:#099439;}
	.st12{display:inline;opacity:0.6;fill:#099439;}
	.st13{display:inline;opacity:0.3;fill:#099439;}
	.st14{display:inline;opacity:0.2;fill:#474747;}
	.st15{fill:#474747;}
	.st16{fill:#009839;}
	.st17{fill:none;stroke:#B3D1A7;stroke-miterlimit:10;}
	.st18{fill:#686868;}
	.st19{fill:#BABABA;}
	.st20{fill:#BABABA;stroke:#000000;stroke-width:2;stroke-miterlimit:10;}
	.st21{fill:none;stroke:#000000;stroke-width:2;stroke-miterlimit:10;}
	.st22{fill:none;stroke:#BABABA;stroke-width:2.5;stroke-linecap:round;stroke-miterlimit:10;}
	.st23{fill:none;stroke:#000000;stroke-width:2;stroke-linecap:round;stroke-miterlimit:10;}
	.st24{fill:#FFFFFF;stroke:#000000;stroke-width:2;stroke-linecap:round;stroke-miterlimit:10;}
	.st25{fill:#FFFFFF;}
	.st26{fill:#686868;stroke:#000000;stroke-width:2;stroke-miterlimit:10;}
	.st27{fill:none;stroke:#000000;stroke-miterlimit:10;}
	.st28{fill:none;stroke:#000000;stroke-width:2;stroke-linecap:round;stroke-linejoin:round;stroke-miterlimit:10;}
	.st29{fill:none;stroke:#000000;stroke-width:2;stroke-linejoin:round;stroke-miterlimit:10;}
</style>
<g id="Livello_1" class="st0">
</g>
<g id="Livello_2">
	<g>
		<path d="M76.5,108.5c-1.1,0-4.4,0-7.7-3.3c-2.7-2.7-4.4-2.7-5.3-2.7h-31c-1.2,0-3-0.8-3-3v-66c0-1.2,0.8-3,3-3h3v-9l35.2,0
			c0.1,0,3.2,0.8,4.9,3.7c1.1-1.7,3-3.7,5.9-3.7h35V30h3.5c1.2,0,3,0.8,3,3v65.4c0.2,1,0,3-2.1,4l-0.2,0.1H87.5c0,0-1.7,0.1-4.3,2.7
			C79.9,108.5,77.6,108.5,76.5,108.5z M63.5,100.5c1.1,0,3.4,0,6.7,3.3c2.7,2.7,5.4,2.7,6.3,2.7c0.9,0,2.6,0,5.3-2.7
			c3.2-3.2,5.5-3.3,5.7-3.3h32.7c1-0.6,0.8-1.6,0.8-1.8l0-0.2V33c0-0.8-0.6-1-1-1h-3.6l-1.9,4.5v-13h-33c-2.4,0-4,2.2-4.7,3.6
			c-0.3,0.5-0.8,0.8-1.3,0.7c-0.6,0-1-0.4-1.2-0.9c-1-2.4-3.4-3.3-3.9-3.4H37.5v9h-5c-0.8,0-1,0.5-1,1v66c0,0.8,0.6,1,1,1H63.5z"/>
		<path d="M75.5,99.4l-0.8,0l-0.2-0.8c-0.8-3-2-3.1-2.1-3.1l-36.9,0v-64h2v62h35c0.2,0,1.8,0.1,3.1,2.4c0.8-1.2,2-2.4,3.9-2.4h35
			v-62h2v64h-37c-2,0-2.9,2.9-3,3.2l-0.2,0.7H75.5z"/>
		<rect x="45.5" y="29.5" width="9" height="15"/>
		<path class="st19" d="M69.5,32.8h-10c-0.7,0-1.2-0.6-1.2-1.2s0.6-1.2,1.2-1.2h10c0.7,0,1.2,0.6,1.2,1.2S70.2,32.8,69.5,32.8z"/>
		<path class="st19" d="M69.5,38.8h-10c-0.7,0-1.2-0.6-1.2-1.2s0.6-1.2,1.2-1.2h10c0.7,0,1.2,0.6,1.2,1.2S70.2,38.8,69.5,38.8z"/>
		<path class="st19" d="M69.5,45.8h-10c-0.7,0-1.2-0.6-1.2-1.2s0.6-1.2,1.2-1.2h10c0.7,0,1.2,0.6,1.2,1.2S70.2,45.8,69.5,45.8z"/>
		<path class="st19" d="M69.5,51.8H45c-0.7,0-1.2-0.6-1.2-1.2s0.6-1.2,1.2-1.2h24.5c0.7,0,1.2,0.6,1.2,1.2S70.2,51.8,69.5,51.8z"/>
		<path class="st19" d="M69.5,58.8H45c-0.7,0-1.2-0.6-1.2-1.2s0.6-1.2,1.2-1.2h24.5c0.7,0,1.2,0.6,1.2,1.2S70.2,58.8,69.5,58.8z"/>
		<path class="st19" d="M69.5,65.8H45c-0.7,0-1.2-0.6-1.2-1.2s0.6-1.2,1.2-1.2h24.5c0.7,0,1.2,0.6,1.2,1.2S70.2,65.8,69.5,65.8z"/>
		<path class="st19" d="M69.5,71.8H45c-0.7,0-1.2-0.6-1.2-1.2s0.6-1.2,1.2-1.2h24.5c0.7,0,1.2,0.6,1.2,1.2S70.2,71.8,69.5,71.8z"/>
		<path class="st19" d="M69.5,78.8H45c-0.7,0-1.2-0.6-1.2-1.2s0.6-1.2,1.2-1.2h24.5c0.7,0,1.2,0.6,1.2,1.2S70.2,78.8,69.5,78.8z"/>
		<path class="st19" d="M69.5,84.8H45c-0.7,0-1.2-0.6-1.2-1.2s0.6-1.2,1.2-1.2h24.5c0.7,0,1.2,0.6,1.2,1.2S70.2,84.8,69.5,84.8z"/>
		<path class="st19" d="M106.5,51.8H82c-0.7,0-1.2-0.6-1.2-1.2s0.6-1.2,1.2-1.2h24.5c0.7,0,1.2,0.6,1.2,1.2S107.2,51.8,106.5,51.8z"
			/>
		<path class="st19" d="M106.5,45.8H82c-0.7,0-1.2-0.6-1.2-1.2s0.6-1.2,1.2-1.2h24.5c0.7,0,1.2,0.6,1.2,1.2S107.2,45.8,106.5,45.8z"
			/>
		<path class="st19" d="M106.5,38.8H82c-0.7,0-1.2-0.6-1.2-1.2s0.6-1.2,1.2-1.2h24.5c0.7,0,1.2,0.6,1.2,1.2S107.2,38.8,106.5,38.8z"
			/>
		<path class="st19" d="M106.5,32.8H82c-0.7,0-1.2-0.6-1.2-1.2s0.6-1.2,1.2-1.2h24.5c0.7,0,1.2,0.6,1.2,1.2S107.2,32.8,106.5,32.8z"
			/>
		<path class="st19" d="M106.5,58.8H82c-0.7,0-1.2-0.6-1.2-1.2s0.6-1.2,1.2-1.2h24.5c0.7,0,1.2,0.6,1.2,1.2S107.2,58.8,106.5,58.8z"
			/>
		<path class="st19" d="M106.5,65.8H82c-0.7,0-1.2-0.6-1.2-1.2s0.6-1.2,1.2-1.2h24.5c0.7,0,1.2,0.6,1.2,1.2S107.2,65.8,106.5,65.8z"
			/>
		<path class="st19" d="M106.5,71.8H82c-0.7,0-1.2-0.6-1.2-1.2s0.6-1.2,1.2-1.2h24.5c0.7,0,1.2,0.6,1.2,1.2S107.2,71.8,106.5,71.8z"
			/>
		<path class="st19" d="M106.5,78.8H82c-0.7,0-1.2-0.6-1.2-1.2s0.6-1.2,1.2-1.2h24.5c0.7,0,1.2,0.6,1.2,1.2S107.2,78.8,106.5,78.8z"
			/>
		<path class="st19" d="M106.5,84.8H82c-0.7,0-1.2-0.6-1.2-1.2s0.6-1.2,1.2-1.2h24.5c0.7,0,1.2,0.6,1.2,1.2S107.2,84.8,106.5,84.8z"
			/>
		<polyline points="100.3,70 104.5,73.5 104.5,22.5 95.5,22.5 95.5,73.5 100.3,70 		"/>
	</g>
</g>
</svg>
